<svg xmlns="http://www.w3.org/2000/svg" version="1.1" xmlns:xlink="http://www.w3.org/1999/xlink" xmlns:svgjs="http://svgjs.dev/svgjs" width="2000" height="1999" viewBox="0 0 2000 1999"><g transform="matrix(1,0,0,1,-0.431486880466764,-0.4312711370263287)"><svg viewBox="0 0 343 343" data-background-color="#ffffff" preserveAspectRatio="xMidYMid meet" height="1999" width="2000" xmlns="http://www.w3.org/2000/svg" xmlns:xlink="http://www.w3.org/1999/xlink"><g id="tight-bounds" transform="matrix(1,0,0,1,0.0740000000000407,0.07400000000001228)"><svg viewBox="0 0 342.85155851775386 342.85155851775386" height="342.85155851775386" width="342.85155851775386"><g><svg></svg></g><g><svg viewBox="0 0 342.85155851775386 342.85155851775386" height="342.85155851775386" width="342.85155851775386"><g><path d="M0 171.426c0-94.676 76.75-171.426 171.426-171.426 94.676 0 171.426 76.75 171.426 171.426 0 94.676-76.75 171.426-171.426 171.426-94.676 0-171.426-76.75-171.426-171.426zM171.426 339.365c92.75 0 167.939-75.189 167.939-167.939 0-92.75-75.189-167.939-167.939-167.939-92.75 0-167.939 75.189-167.939 167.939 0 92.75 75.189 167.939 167.939 167.939z" data-fill-palette-color="tertiary" fill="#000000" stroke="transparent"></path><ellipse rx="164.56874808852186" ry="164.56874808852186" cx="171.42577925887693" cy="171.42577925887693" fill="#000000" stroke="transparent" stroke-width="0" fill-opacity="1" data-fill-palette-color="tertiary"></ellipse></g><g transform="matrix(1,0,0,1,64.84655864529837,120.81040438499507)"><svg viewBox="0 0 213.1584412271571 101.23074974776372" height="101.23074974776372" width="213.1584412271571"><g><svg viewBox="0 0 213.1584412271571 101.23074974776372" height="101.23074974776372" width="213.1584412271571"><g><svg viewBox="0 0 213.1584412271571 101.23074974776372" height="101.23074974776372" width="213.1584412271571"><g transform="matrix(1,0,0,1,0,62.56466452038159)"><svg viewBox="0 0 213.1584412271571 38.66608522738214" height="38.66608522738214" width="213.1584412271571"><g id="textblocktransform"><svg viewBox="0 0 213.1584412271571 38.66608522738214" height="38.66608522738214" width="213.1584412271571" id="textblock"><g><svg viewBox="0 0 213.1584412271571 38.66608522738214" height="38.66608522738214" width="213.1584412271571"><g transform="matrix(1,0,0,1,0,0)"><svg width="213.1584412271571" viewBox="-0.85 -43.65 366.02000000000004 66.4" height="38.66608522738214" data-palette-color="#ffffff"><path d="M24.7-42.1Q26-42.1 26.9-41.48 27.8-40.85 27.8-39.95L27.8-39.95Q27.8-38.35 26.8-37.38 25.8-36.4 23.95-36.4L23.95-36.4Q21.05-36.4 19.55-36.35L19.55-36.35Q19.45-35.75 18.65-30.95L18.65-30.95Q17.75-25.6 17.55-24.4L17.55-24.4 16.5-17.85Q15.4-10.5 14.75-5.55L14.75-5.55Q15.8-5.6 17.6-5.6L17.6-5.6Q20.25-5.6 21.2-4.9 22.15-4.2 22.15-2.8L22.15-2.8Q22.15-1.5 21.13-0.6 20.1 0.3 18.25 0.3L18.25 0.3Q17 0.3 14.3 0.2L14.3 0.2Q11.8 0.1 11 0.1L11 0.1Q7.85 0.1 4.1 0.65L4.1 0.65Q2.45 0.9 1.75 0.9L1.75 0.9Q0.65 0.9-0.1 0.3-0.85-0.3-0.85-1.45L-0.85-1.45Q-0.85-3.25 0.75-4.25 2.35-5.25 5.25-5.3L5.25-5.3 7.6-5.35 7.75-6.45Q8.95-14.45 9.5-17.75L9.5-17.75 10.6-24.3Q11.6-30.1 12.4-36.25L12.4-36.25 8.2-36.2Q6.4-36.2 5.73-36.77 5.05-37.35 5.05-38.4L5.05-38.4Q5.05-41.8 9.95-42.05L9.95-42.05Q12.25-42.15 15.55-42.15L15.55-42.15 24.7-42.1ZM30.7 0.25Q28.8 0.25 28.02-1.75 27.25-3.75 27.25-8.15L27.25-8.15Q27.25-14.65 29.1-20.5L29.1-20.5Q29.55-21.95 30.57-22.63 31.6-23.3 33.45-23.3L33.45-23.3Q34.45-23.3 34.85-23.05 35.25-22.8 35.25-22.1L35.25-22.1Q35.25-21.3 34.5-18.5L34.5-18.5Q34-16.5 33.7-15.03 33.4-13.55 33.2-11.35L33.2-11.35Q34.55-15.25 36.42-17.95 38.3-20.65 40.27-21.98 42.25-23.3 44-23.3L44-23.3Q45.75-23.3 46.47-22.5 47.2-21.7 47.2-20.05L47.2-20.05Q47.2-18.45 46.25-14.25L46.25-14.25Q45.85-12.45 45.7-11.55L45.7-11.55Q48.2-17.7 51.25-20.5 54.3-23.3 56.95-23.3L56.95-23.3Q60.2-23.3 60.2-20.05L60.2-20.05Q60.2-18.1 59.1-13L59.1-13Q58.15-8.65 58.15-7.25L58.15-7.25Q58.15-5.25 59.6-5.25L59.6-5.25Q60.6-5.25 61.97-6.48 63.35-7.7 65.65-10.45L65.65-10.45Q66.25-11.15 67-11.15L67-11.15Q67.65-11.15 68.02-10.55 68.4-9.95 68.4-8.9L68.4-8.9Q68.4-6.9 67.45-5.8L67.45-5.8Q65.3-3.15 62.82-1.45 60.35 0.25 57.2 0.25L57.2 0.25Q54.65 0.25 53.35-1.23 52.05-2.7 52.05-5.5L52.05-5.5Q52.05-6.9 52.75-10.5L52.75-10.5Q53.4-13.65 53.4-14.85L53.4-14.85Q53.4-15.65 52.85-15.65L52.85-15.65Q52.2-15.65 51-13.98 49.8-12.3 48.6-9.55 47.4-6.8 46.65-3.75L46.65-3.75Q46.1-1.35 45.37-0.55 44.65 0.25 43.05 0.25L43.05 0.25Q41.4 0.25 40.57-1.33 39.75-2.9 39.75-5.15L39.75-5.15Q39.75-7.05 40.25-10.65L40.25-10.65Q40.65-13.85 40.65-14.85L40.65-14.85Q40.65-15.65 40.1-15.65L40.1-15.65Q39.35-15.65 38.2-13.85 37.05-12.05 35.97-9.25 34.9-6.45 34.25-3.75L34.25-3.75Q33.7-1.4 32.97-0.58 32.25 0.25 30.7 0.25L30.7 0.25ZM70.5 0.25Q67.4 0.25 65.55-2 63.7-4.25 63.7-7.9L63.7-7.9Q63.7-11.9 65.55-15.48 67.4-19.05 70.47-21.23 73.55-23.4 77-23.4L77-23.4Q78.1-23.4 78.47-22.98 78.85-22.55 79.1-21.45L79.1-21.45Q80.15-21.65 81.3-21.65L81.3-21.65Q83.75-21.65 83.75-19.9L83.75-19.9Q83.75-18.85 83-14.9L83-14.9Q81.85-9.15 81.85-6.9L81.85-6.9Q81.85-6.15 82.22-5.7 82.6-5.25 83.2-5.25L83.2-5.25Q84.15-5.25 85.5-6.48 86.85-7.7 89.15-10.45L89.15-10.45Q89.75-11.15 90.5-11.15L90.5-11.15Q91.15-11.15 91.52-10.55 91.9-9.95 91.9-8.9L91.9-8.9Q91.9-6.9 90.95-5.8L90.95-5.8Q88.9-3.25 86.6-1.5 84.3 0.25 82.15 0.25L82.15 0.25Q80.5 0.25 79.12-0.88 77.75-2 77.05-3.95L77.05-3.95Q74.45 0.25 70.5 0.25L70.5 0.25ZM72.3-4.8Q73.4-4.8 74.4-6.1 75.4-7.4 75.85-9.55L75.85-9.55 77.7-18.75Q75.6-18.7 73.82-17.18 72.05-15.65 71-13.15 69.95-10.65 69.95-7.85L69.95-7.85Q69.95-6.3 70.57-5.55 71.2-4.8 72.3-4.8L72.3-4.8ZM113.44-11.05Q114.09-11.05 114.47-10.43 114.84-9.8 114.84-8.85L114.84-8.85Q114.84-7.7 114.49-7.05 114.14-6.4 113.39-5.9L113.39-5.9Q109.09-3 107.09-1.6L107.09-1.6 103.89 0.55Q101.99 10.9 98.92 16.82 95.84 22.75 91.09 22.75L91.09 22.75Q88.54 22.75 86.94 21.18 85.34 19.6 85.34 17.05L85.34 17.05Q85.34 13.5 88.14 9.43 90.94 5.35 98.64-0.6L98.64-0.6 98.94-2.55Q98.09-1.2 96.72-0.48 95.34 0.25 93.99 0.25L93.99 0.25Q90.89 0.25 89.04-2 87.19-4.25 87.19-7.9L87.19-7.9Q87.19-11.9 89.04-15.48 90.89-19.05 93.97-21.23 97.04-23.4 100.49-23.4L100.49-23.4Q101.59-23.4 101.97-22.98 102.34-22.55 102.59-21.45L102.59-21.45Q103.54-21.65 104.79-21.65L104.79-21.65Q106.04-21.65 106.57-21.28 107.09-20.9 107.09-19.8L107.09-19.8Q107.09-19.2 107.04-18.85L107.04-18.85Q106.84-17.3 105.79-11L105.79-11Q105.59-9.8 105.37-8.38 105.14-6.95 104.89-5.35L104.89-5.35Q108.74-8.35 112.29-10.65L112.29-10.65Q112.94-11.05 113.44-11.05L113.44-11.05ZM95.79-4.8Q96.94-4.8 97.99-6.2 99.04-7.6 99.49-10.2L99.49-10.2 101.09-18.75Q99.04-18.7 97.29-17.18 95.54-15.65 94.49-13.15 93.44-10.65 93.44-7.85L93.44-7.85Q93.44-6.3 94.07-5.55 94.69-4.8 95.79-4.8L95.79-4.8ZM91.64 17.9Q92.89 17.9 94.47 14.9 96.04 11.9 97.49 5.35L97.49 5.35Q93.64 8.65 91.94 11.3 90.24 13.95 90.24 15.95L90.24 15.95Q90.24 16.8 90.57 17.35 90.89 17.9 91.64 17.9L91.64 17.9ZM134.09-11.15Q134.74-11.15 135.12-10.55 135.49-9.95 135.49-8.9L135.49-8.9Q135.49-6.9 134.54-5.8L134.54-5.8Q132.69-3.55 129.32-1.65 125.94 0.25 122.09 0.25L122.09 0.25Q116.84 0.25 113.94-2.6 111.04-5.45 111.04-10.4L111.04-10.4Q111.04-13.85 112.49-16.82 113.94-19.8 116.52-21.55 119.09-23.3 122.34-23.3L122.34-23.3Q125.24-23.3 126.99-21.58 128.74-19.85 128.74-16.9L128.74-16.9Q128.74-13.45 126.27-10.98 123.79-8.5 117.89-7.05L117.89-7.05Q119.14-4.75 122.64-4.75L122.64-4.75Q124.89-4.75 127.77-6.33 130.64-7.9 132.74-10.45L132.74-10.45Q133.34-11.15 134.09-11.15L134.09-11.15ZM121.49-18.4Q119.64-18.4 118.37-16.25 117.09-14.1 117.09-11.05L117.09-11.05 117.09-10.95Q120.04-11.65 121.74-13.05 123.44-14.45 123.44-16.3L123.44-16.3Q123.44-17.25 122.92-17.82 122.39-18.4 121.49-18.4L121.49-18.4ZM186.89-11.05Q187.54-11.05 187.91-10.43 188.29-9.8 188.29-8.85L188.29-8.85Q188.29-7.7 187.94-7.05 187.59-6.4 186.84-5.9L186.84-5.9Q183.89-3.95 177.44 0.5L177.44 0.5Q175.49 10.85 172.39 16.8 169.29 22.75 164.54 22.75L164.54 22.75Q161.99 22.75 160.39 21.18 158.79 19.6 158.79 17.05L158.79 17.05Q158.79 14.7 159.84 12.3 160.89 9.9 163.76 6.75 166.64 3.6 171.89-0.45L171.89-0.45 172.04-1.4Q168.09 0.25 164.29 0.25L164.29 0.25Q158.69 0.25 154.44-1.93 150.19-4.1 147.84-8.1 145.49-12.1 145.49-17.4L145.49-17.4Q145.49-24.8 148.29-30.48 151.09-36.15 156.01-39.28 160.94-42.4 167.04-42.4L167.04-42.4Q172.89-42.4 175.81-39.68 178.74-36.95 178.74-32.45L178.74-32.45Q178.74-29.5 177.66-27.73 176.59-25.95 174.59-25.95L174.59-25.95Q173.24-25.95 172.41-26.6 171.59-27.25 171.59-28.4L171.59-28.4Q171.59-28.9 171.79-30.1L171.79-30.1Q172.09-31.5 172.09-32.3L172.09-32.3Q172.09-34.4 170.81-35.55 169.54-36.7 166.54-36.7L166.54-36.7Q162.89-36.7 159.76-34.6 156.64-32.5 154.74-28.33 152.84-24.15 152.84-18.3L152.84-18.3Q152.84-12.3 156.11-9.03 159.39-5.75 165.59-5.75L165.59-5.75Q169.04-5.75 172.79-7.3L172.79-7.3 173.49-13.4 168.39-13.4Q166.99-13.4 166.24-14.08 165.49-14.75 165.49-16.3L165.49-16.3Q165.49-17.7 166.24-18.5 166.99-19.3 168.24-19.3L168.24-19.3 177.59-19.3Q178.69-19.3 179.41-18.57 180.14-17.85 179.99-16.5L179.99-16.5Q179.84-14.9 178.99-9.25L178.99-9.25 178.44-5.45Q182.44-8.45 185.74-10.65L185.74-10.65Q186.39-11.05 186.89-11.05L186.89-11.05ZM165.09 17.9Q166.39 17.9 167.94 14.95 169.49 12 170.84 5.45L170.84 5.45Q167.04 8.7 165.36 11.33 163.69 13.95 163.69 15.95L163.69 15.95Q163.69 17.9 165.09 17.9L165.09 17.9ZM207.53-11.15Q208.18-11.15 208.56-10.55 208.93-9.95 208.93-8.9L208.93-8.9Q208.93-6.9 207.98-5.8L207.98-5.8Q206.13-3.55 202.76-1.65 199.38 0.25 195.53 0.25L195.53 0.25Q190.28 0.25 187.38-2.6 184.48-5.45 184.48-10.4L184.48-10.4Q184.48-13.85 185.93-16.82 187.38-19.8 189.96-21.55 192.53-23.3 195.78-23.3L195.78-23.3Q198.68-23.3 200.43-21.58 202.18-19.85 202.18-16.9L202.18-16.9Q202.18-13.45 199.71-10.98 197.23-8.5 191.33-7.05L191.33-7.05Q192.58-4.75 196.08-4.75L196.08-4.75Q198.33-4.75 201.21-6.33 204.08-7.9 206.18-10.45L206.18-10.45Q206.78-11.15 207.53-11.15L207.53-11.15ZM194.93-18.4Q193.08-18.4 191.81-16.25 190.53-14.1 190.53-11.05L190.53-11.05 190.53-10.95Q193.48-11.65 195.18-13.05 196.88-14.45 196.88-16.3L196.88-16.3Q196.88-17.25 196.36-17.82 195.83-18.4 194.93-18.4L194.93-18.4ZM208.43 0.25Q206.53 0.25 205.76-1.75 204.98-3.75 204.98-8.15L204.98-8.15Q204.98-14.65 206.83-20.5L206.83-20.5Q207.28-21.95 208.31-22.63 209.33-23.3 211.18-23.3L211.18-23.3Q212.18-23.3 212.58-23.05 212.98-22.8 212.98-22.1L212.98-22.1Q212.98-21.3 212.23-18.5L212.23-18.5Q211.73-16.5 211.43-15 211.13-13.5 210.93-11.3L210.93-11.3Q212.58-15.6 214.63-18.3 216.68-21 218.66-22.15 220.63-23.3 222.28-23.3L222.28-23.3Q225.53-23.3 225.53-20.05L225.53-20.05Q225.53-18.1 224.43-13L224.43-13Q223.48-8.65 223.48-7.25L223.48-7.25Q223.48-5.25 224.93-5.25L224.93-5.25Q225.93-5.25 227.31-6.48 228.68-7.7 230.98-10.45L230.98-10.45Q231.58-11.15 232.33-11.15L232.33-11.15Q232.98-11.15 233.36-10.55 233.73-9.95 233.73-8.9L233.73-8.9Q233.73-6.9 232.78-5.8L232.78-5.8Q230.63-3.15 228.16-1.45 225.68 0.25 222.53 0.25L222.53 0.25Q219.98 0.25 218.68-1.23 217.38-2.7 217.38-5.5L217.38-5.5Q217.38-6.9 218.08-10.5L218.08-10.5Q218.73-13.65 218.73-14.85L218.73-14.85Q218.73-15.65 218.18-15.65L218.18-15.65Q217.53-15.65 216.36-13.98 215.18-12.3 213.96-9.55 212.73-6.8 211.98-3.75L211.98-3.75Q211.43-1.4 210.71-0.58 209.98 0.25 208.43 0.25L208.43 0.25ZM251.98-11.15Q252.63-11.15 253-10.55 253.38-9.95 253.38-8.9L253.38-8.9Q253.38-6.9 252.43-5.8L252.43-5.8Q250.58-3.55 247.2-1.65 243.83 0.25 239.98 0.25L239.98 0.25Q234.73 0.25 231.83-2.6 228.93-5.45 228.93-10.4L228.93-10.4Q228.93-13.85 230.38-16.82 231.83-19.8 234.4-21.55 236.98-23.3 240.23-23.3L240.23-23.3Q243.13-23.3 244.88-21.58 246.63-19.85 246.63-16.9L246.63-16.9Q246.63-13.45 244.15-10.98 241.68-8.5 235.78-7.05L235.78-7.05Q237.03-4.75 240.53-4.75L240.53-4.75Q242.78-4.75 245.65-6.33 248.53-7.9 250.63-10.45L250.63-10.45Q251.23-11.15 251.98-11.15L251.98-11.15ZM239.38-18.4Q237.53-18.4 236.25-16.25 234.98-14.1 234.98-11.05L234.98-11.05 234.98-10.95Q237.93-11.65 239.63-13.05 241.33-14.45 241.33-16.3L241.33-16.3Q241.33-17.25 240.8-17.82 240.28-18.4 239.38-18.4L239.38-18.4ZM252.88 0.25Q250.98 0.25 250.2-1.75 249.43-3.75 249.43-8.15L249.43-8.15Q249.43-14.65 251.28-20.5L251.28-20.5Q251.73-21.95 252.75-22.63 253.78-23.3 255.63-23.3L255.63-23.3Q256.63-23.3 257.03-23.05 257.43-22.8 257.43-22.1L257.43-22.1Q257.43-21.3 256.68-18.5L256.68-18.5Q256.18-16.5 255.88-15 255.58-13.5 255.38-11.3L255.38-11.3Q257.03-15.6 259.08-18.3 261.13-21 263.1-22.15 265.08-23.3 266.73-23.3L266.73-23.3Q269.98-23.3 269.98-20.05L269.98-20.05Q269.98-19.4 269.53-16.9L269.53-16.9Q269.13-14.9 269.13-14.4L269.13-14.4Q269.13-12.65 270.38-12.65L270.38-12.65Q271.78-12.65 273.98-14.85L273.98-14.85Q274.63-15.5 275.33-15.5L275.33-15.5Q275.98-15.5 276.35-14.93 276.73-14.35 276.73-13.4L276.73-13.4Q276.73-11.55 275.73-10.5L275.73-10.5Q274.33-9.05 272.45-8.03 270.58-7 268.48-7L268.48-7Q265.83-7 264.45-8.35 263.08-9.7 263.08-12L263.08-12Q263.08-12.75 263.23-13.5L263.23-13.5Q263.33-14.5 263.33-14.85L263.33-14.85Q263.33-15.65 262.78-15.65L262.78-15.65Q262.03-15.65 260.8-13.98 259.58-12.3 258.38-9.55 257.18-6.8 256.43-3.75L256.43-3.75Q255.88-1.4 255.15-0.58 254.43 0.25 252.88 0.25L252.88 0.25ZM278.22 0.25Q275.12 0.25 273.27-2 271.42-4.25 271.42-7.9L271.42-7.9Q271.42-11.9 273.27-15.48 275.12-19.05 278.2-21.23 281.27-23.4 284.72-23.4L284.72-23.4Q285.82-23.4 286.2-22.98 286.57-22.55 286.82-21.45L286.82-21.45Q287.87-21.65 289.02-21.65L289.02-21.65Q291.47-21.65 291.47-19.9L291.47-19.9Q291.47-18.85 290.72-14.9L290.72-14.9Q289.57-9.15 289.57-6.9L289.57-6.9Q289.57-6.15 289.95-5.7 290.32-5.25 290.92-5.25L290.92-5.25Q291.87-5.25 293.22-6.48 294.57-7.7 296.87-10.45L296.87-10.45Q297.47-11.15 298.22-11.15L298.22-11.15Q298.87-11.15 299.25-10.55 299.62-9.95 299.62-8.9L299.62-8.9Q299.62-6.9 298.67-5.8L298.67-5.8Q296.62-3.25 294.32-1.5 292.02 0.25 289.87 0.25L289.87 0.25Q288.22 0.25 286.85-0.88 285.47-2 284.77-3.95L284.77-3.95Q282.17 0.25 278.22 0.25L278.22 0.25ZM280.02-4.8Q281.12-4.8 282.12-6.1 283.12-7.4 283.57-9.55L283.57-9.55 285.42-18.75Q283.32-18.7 281.55-17.18 279.77-15.65 278.72-13.15 277.67-10.65 277.67-7.85L277.67-7.85Q277.67-6.3 278.3-5.55 278.92-4.8 280.02-4.8L280.02-4.8ZM317.87-11.15Q318.52-11.15 318.9-10.55 319.27-9.95 319.27-8.9L319.27-8.9Q319.27-6.9 318.32-5.8L318.32-5.8Q316.17-3.15 313.62-1.45 311.07 0.25 307.77 0.25L307.77 0.25Q297.57 0.25 297.57-14.1L297.57-14.1Q297.57-16.3 297.72-18.55L297.72-18.55 295.77-18.55Q294.27-18.55 293.75-19.1 293.22-19.65 293.22-20.85L293.22-20.85Q293.22-23.65 295.47-23.65L295.47-23.65 298.32-23.65Q299.17-29.15 300.92-33.7 302.67-38.25 305.15-40.95 307.62-43.65 310.47-43.65L310.47-43.65Q312.57-43.65 313.77-41.8 314.97-39.95 314.97-37.15L314.97-37.15Q314.97-29.4 308.47-23.65L308.47-23.65 314.07-23.65Q314.87-23.65 315.22-23.3 315.57-22.95 315.57-22L315.57-22Q315.57-18.55 309.92-18.55L309.92-18.55 303.82-18.55Q303.72-16.05 303.72-14.65L303.72-14.65Q303.72-9.45 304.95-7.35 306.17-5.25 308.82-5.25L308.82-5.25Q310.97-5.25 312.62-6.55 314.27-7.85 316.52-10.45L316.52-10.45Q317.12-11.15 317.87-11.15L317.87-11.15ZM309.12-38.85Q308.37-38.85 307.45-36.98 306.52-35.1 305.7-31.78 304.87-28.45 304.32-24.4L304.32-24.4Q307.27-26.95 308.75-30.13 310.22-33.3 310.22-35.9L310.22-35.9Q310.22-38.85 309.12-38.85L309.12-38.85ZM340.72-15.35Q341.37-15.35 341.72-14.7 342.07-14.05 342.07-13.05L342.07-13.05Q342.07-10.65 340.62-10.2L340.62-10.2Q337.62-9.15 334.02-9L334.02-9Q333.07-4.8 330.27-2.27 327.47 0.25 323.92 0.25L323.92 0.25Q320.92 0.25 318.79-1.2 316.67-2.65 315.57-5.05 314.47-7.45 314.47-10.25L314.47-10.25Q314.47-14.05 315.92-17.03 317.37-20 319.92-21.68 322.47-23.35 325.57-23.35L325.57-23.35Q329.37-23.35 331.69-20.73 334.02-18.1 334.42-14.25L334.42-14.25Q336.77-14.4 340.02-15.25L340.02-15.25Q340.42-15.35 340.72-15.35L340.72-15.35ZM324.32-5.05Q325.92-5.05 327.09-6.35 328.27-7.65 328.67-10.1L328.67-10.1Q327.12-11.15 326.29-12.85 325.47-14.55 325.47-16.45L325.47-16.45Q325.47-17.25 325.62-18.05L325.62-18.05 325.37-18.05Q323.37-18.05 322.04-16.13 320.72-14.2 320.72-10.7L320.72-10.7Q320.72-7.95 321.79-6.5 322.87-5.05 324.32-5.05L324.32-5.05ZM341.32 0.25Q339.42 0.25 338.64-1.75 337.87-3.75 337.87-8.15L337.87-8.15Q337.87-14.65 339.72-20.5L339.72-20.5Q340.17-21.95 341.19-22.63 342.22-23.3 344.07-23.3L344.07-23.3Q345.07-23.3 345.47-23.05 345.87-22.8 345.87-22.1L345.87-22.1Q345.87-21.3 345.12-18.5L345.12-18.5Q344.62-16.5 344.32-15 344.02-13.5 343.82-11.3L343.82-11.3Q345.47-15.6 347.52-18.3 349.57-21 351.54-22.15 353.52-23.3 355.17-23.3L355.17-23.3Q358.42-23.3 358.42-20.05L358.42-20.05Q358.42-19.4 357.97-16.9L357.97-16.9Q357.57-14.9 357.57-14.4L357.57-14.4Q357.57-12.65 358.82-12.65L358.82-12.65Q360.22-12.65 362.42-14.85L362.42-14.85Q363.07-15.5 363.77-15.5L363.77-15.5Q364.42-15.5 364.79-14.93 365.17-14.35 365.17-13.4L365.17-13.4Q365.17-11.55 364.17-10.5L364.17-10.5Q362.77-9.05 360.89-8.03 359.02-7 356.92-7L356.92-7Q354.27-7 352.89-8.35 351.52-9.7 351.52-12L351.52-12Q351.52-12.75 351.67-13.5L351.67-13.5Q351.77-14.5 351.77-14.85L351.77-14.85Q351.77-15.65 351.22-15.65L351.22-15.65Q350.47-15.65 349.24-13.98 348.02-12.3 346.82-9.55 345.62-6.8 344.87-3.75L344.87-3.75Q344.32-1.4 343.59-0.58 342.87 0.25 341.32 0.25L341.32 0.25Z" opacity="1" transform="matrix(1,0,0,1,0,0)" fill="#ffffff" class="wordmark-text-0" data-fill-palette-color="quaternary" id="text-0"></path></svg></g></svg></g></svg></g></svg></g><g transform="matrix(1,0,0,1,79.86095572145749,0)"><svg viewBox="0 0 53.436529784242126 53.436529784242126" height="53.436529784242126" width="53.436529784242126"><g><svg xmlns="http://www.w3.org/2000/svg" xmlns:xlink="http://www.w3.org/1999/xlink" version="1.1" x="0" y="0" viewBox="0 0 512 512" enable-background="new 0 0 512 512" xml:space="preserve" height="53.436529784242126" width="53.436529784242126" class="icon-icon-0" data-fill-palette-color="quaternary" id="icon-0"><path d="M448 32c17.656 0 32 14.375 32 32v288c0 17.656-14.344 32-32 32H64c-17.641 0-32-14.344-32-32V64c0-17.625 14.359-32 32-32H448M448 0H64C28.656 0 0 28.656 0 64v384c0 35.344 28.656 64 64 64h384c35.344 0 64-28.656 64-64V64C512 28.656 483.344 0 448 0L448 0zM448 352L320.219 128 192.406 352H448zM198.797 276.188L159.875 224 64.406 352h91.156L198.797 276.188zM128 96c-17.672 0-32 14.313-32 32s14.328 32 32 32 32-14.313 32-32S145.672 96 128 96z" fill="#ffffff" data-fill-palette-color="quaternary"></path></svg></g></svg></g><g></g></svg></g></svg></g></svg></g></svg></g><defs></defs></svg><rect width="342.85155851775386" height="342.85155851775386" fill="none" stroke="none" visibility="hidden"></rect></g></svg></g></svg>